<svg width="311" height="72" viewBox="0 0 311 72" fill="none" xmlns="http://www.w3.org/2000/svg">
<path d="M189.884 17.7772V20.2128H184.166V21.7059H188.719V24.1415H184.166V28.2144H180.002V17.7761H189.884V17.7772Z" fill="#0767B0"/>
<path d="M198.258 17.7771L202.811 28.2153H198.664L198.17 26.8371H194.024L193.547 28.2153H189.471L194.024 17.7771H198.258ZM197.446 24.6627L196.104 20.9221L194.816 24.6627H197.446Z" fill="#0767B0"/>
<path d="M208.274 28.2144H204.11V17.7761H210.109C214.344 17.7761 215.757 18.7197 215.757 20.7488C215.757 21.9514 215.084 22.966 213.603 23.3004C214.947 23.7058 215.757 23.967 215.757 26.0682C215.757 27.6052 215.861 27.8957 216.196 27.8957V28.2144H211.98C211.874 27.9813 211.769 27.3147 211.769 26.388C211.769 25.0243 211.486 24.5762 209.544 24.5762H208.274V28.2144ZM208.274 22.2858H209.915C211.204 22.2858 211.892 22.0257 211.892 21.3006C211.892 20.5608 211.186 20.2128 210.215 20.2128H208.274V22.2858Z" fill="#0767B0"/>
<path d="M232.276 17.7772V20.2128H226.082V21.7059H231.324V24.1415H226.082V25.7788H232.523V28.2144H221.918V17.7761H232.276V17.7772Z" fill="#0767B0"/>
<path d="M242.648 17.7771L247.202 28.2153H243.054L242.56 26.8371H238.414L237.936 28.2153H233.86L238.414 17.7771H242.648ZM241.837 24.6627L240.495 20.9221L239.205 24.6627H241.837Z" fill="#0767B0"/>
<path d="M254.638 20.806C254.478 20.0966 253.753 19.9074 252.96 19.9074C252.044 19.9074 251.636 20.1259 251.636 20.502C251.636 22.0672 258.942 21.0954 258.942 24.8935C258.942 27.3133 256.491 28.4866 252.997 28.4866C249.643 28.4866 247.456 26.8787 247.368 24.9937H251.356C251.356 25.6029 252.397 26.0814 253.227 26.0814C254.265 26.0814 254.954 25.8056 254.954 25.3124C254.954 23.7325 247.649 24.8192 247.649 20.833C247.649 18.6148 249.976 17.5 253.154 17.5C256.682 17.5 258.288 18.9785 258.588 20.8038H254.638V20.806Z" fill="#0767B0"/>
<path d="M267.951 28.2142H263.79V20.2127H260.047V17.7771H271.693V20.2127H267.951V28.2142Z" fill="#0767B0"/>
<path d="M283.704 17.7772V20.2128H277.51V21.7059H282.753V24.1415H277.51V25.7788H283.952V28.2144H273.348V17.7761H283.704V17.7772Z" fill="#0767B0"/>
<path d="M290.013 28.2144H285.85V17.7761H291.85C296.083 17.7761 297.495 18.7197 297.495 20.7488C297.495 21.9514 296.825 22.966 295.342 23.3004C296.685 23.7058 297.495 23.967 297.495 26.0682C297.495 27.6052 297.601 27.8957 297.936 27.8957V28.2144H293.718C293.613 27.9813 293.507 27.3147 293.507 26.388C293.507 25.0243 293.225 24.5762 291.284 24.5762H290.013V28.2144ZM290.013 22.2858H291.656C292.943 22.2858 293.632 22.0257 293.632 21.3006C293.632 20.5608 292.924 20.2128 291.954 20.2128H290.013V22.2858Z" fill="#0767B0"/>
<path d="M302.507 17.7771L307.042 23.4748L306.883 21.0978V17.7782H310.87V28.2165H306.969L302.435 22.5334L302.593 24.9105V28.2165H298.607V17.7782H302.507V17.7771Z" fill="#0767B0"/>
<path d="M189.884 31.2838V33.7183H184.166V35.2114H188.719V37.647H184.166V41.7187H180.002V31.2827H189.884V31.2838Z" fill="#0767B0"/>
<path d="M201.329 31.2838V33.7183H195.135V35.2114H200.377V37.647H195.135V39.2842H201.577V41.7187H190.972V31.2827H201.329V31.2838Z" fill="#0767B0"/>
<path d="M202.877 31.2837H208.452C212.546 31.2837 215.087 32.85 215.087 36.2844C215.087 40.2119 212.422 41.7186 208.347 41.7186H202.877V31.2837ZM207.041 39.2841H207.923C209.864 39.2841 210.923 38.4441 210.923 36.4724C210.923 34.2969 210.059 33.7182 207.835 33.7182H207.043V39.2841H207.041Z" fill="#0767B0"/>
<path d="M226.641 31.2838V33.7183H220.446V35.2114H225.689V37.647H220.446V39.2842H226.887V41.7187H216.283V31.2827H226.641V31.2838Z" fill="#0767B0"/>
<path d="M232.351 41.7187H228.188V31.2827H234.185C238.42 31.2827 239.833 32.2252 239.833 34.2543C239.833 35.4569 239.161 36.4726 237.679 36.8059C239.021 37.2112 239.833 37.4725 239.833 39.5736C239.833 41.1106 239.937 41.4011 240.271 41.4011V41.7187H236.055C235.95 41.4879 235.844 40.8201 235.844 39.8923C235.844 38.5309 235.562 38.0816 233.621 38.0816H232.351V41.7187ZM232.351 35.7913H233.992C235.28 35.7913 235.969 35.5312 235.969 34.806C235.969 34.0674 235.262 33.7183 234.291 33.7183H232.351V35.7913V35.7913Z" fill="#0767B0"/>
<path d="M250.124 31.2837L254.675 41.7197H250.529L250.034 40.3425H245.888L245.411 41.7197H241.335L245.888 31.2837H250.124V31.2837ZM249.312 38.1682L247.97 34.4287L246.679 38.1682H249.312Z" fill="#0767B0"/>
<path d="M259.544 39.2842H265.262V41.7187H255.379V31.2827H259.543V39.2842H259.544Z" fill="#0767B0"/>
<path d="M184.165 44.7895V51.0367C184.165 52.0658 184.413 52.9498 186.124 52.9498C187.623 52.9498 188.065 52.1672 188.065 51.0367V44.7895H192.228V50.6887C192.228 54.0364 190.34 55.5002 186.124 55.5002C182.188 55.5002 180 54.2672 180 50.6741V44.7883H184.165V44.7895Z" fill="#0767B0"/>
<path d="M197.718 44.7893L202.254 50.4859L202.094 48.11V44.7904H206.082V55.2264H202.184L197.649 49.5456L197.807 51.9216V55.2264H193.819V44.7904H197.718V44.7893Z" fill="#0767B0"/>
<path d="M211.836 55.2253H207.672V44.7893H211.836V55.2253Z" fill="#0767B0"/>
<path d="M217.633 44.7893L219.855 51.7313L222.167 44.7893H226.368L221.957 55.2253H217.774L213.433 44.7893H217.633V44.7893Z" fill="#0767B0"/>
<path d="M238.286 44.7895V47.225H232.094V48.717H237.335V51.1526H232.094V52.7887H238.534V55.2243H227.929V44.7883H238.286V44.7895Z" fill="#0767B0"/>
<path d="M244.877 55.2253H240.713V44.7893H246.712C250.947 44.7893 252.358 45.7307 252.358 47.7609C252.358 48.9635 251.688 49.9792 250.205 50.3136C251.548 50.7178 252.358 50.9802 252.358 53.0802C252.358 54.6173 252.464 54.9067 252.798 54.9067V55.2253H248.582C248.476 54.9933 248.372 54.3267 248.372 53.4C248.372 52.0375 248.09 51.5882 246.149 51.5882H244.877V55.2253ZM244.877 49.2968H246.519C247.806 49.2968 248.496 49.0367 248.496 48.3126C248.496 47.5717 247.789 47.2249 246.819 47.2249H244.877V49.2968Z" fill="#0767B0"/>
<path d="M261.367 47.8183C261.208 47.1077 260.486 46.9197 259.692 46.9197C258.773 46.9197 258.366 47.1359 258.366 47.512C258.366 49.0783 265.674 48.1076 265.674 51.9046C265.674 54.3244 263.22 55.4989 259.726 55.4989C256.374 55.4989 254.187 53.8886 254.099 52.0048H258.085C258.085 52.6128 259.127 53.0914 259.955 53.0914C260.997 53.0914 261.685 52.8167 261.685 52.3235C261.685 50.7448 254.378 51.8314 254.378 47.8442C254.378 45.6259 256.708 44.51 259.885 44.51C263.413 44.51 265.018 45.9885 265.319 47.816H261.367V47.8183Z" fill="#0767B0"/>
<path d="M270.909 55.2253H266.745V44.7893H270.909V55.2253Z" fill="#0767B0"/>
<path d="M279.777 55.2254H275.615V47.2261H271.872V44.7905H283.519V47.2261H279.777V55.2254Z" fill="#0767B0"/>
<path d="M288.961 44.7893L291.148 48.3261L293.336 44.7893H297.925L293.196 51.3698V55.2253H289.031V51.4283L284.302 44.7893H288.961V44.7893Z" fill="#0767B0"/>
<path d="M143.1 6.59995C142.1 7.39995 141.4 8.59995 141.1 9.99995C140.9 11.3 141.1 12.9 142 14.3C142.1 14.4 142.2 14.6 142.3 14.7C142.7 15.2 143.2 15.7 143.7 16.3C149.3 21.5 156.1 25.3 161.9 28.2C165.9 30.2 168.2 32.4 169.1 35.8C170.4 29.6 169.1 26.5 167.9 24.7C165.8 21.3 162.4 19.7 162.1 19.5C157.3 16.8 150.7 13.6 146.7 10.2C145.2 8.89995 144 7.59995 143.5 6.19995C143.4 6.29995 143.2 6.39995 143.1 6.59995Z" fill="url(#paint0_linear)"/>
<path d="M140.5 17.8C139 19.2 138 21.3 138 23.1C138 24.5 138.2 25.9 139.5 28.1C144.3 36.3 159.6 42.7 163.4 45C166.2 46.7 168.5 49.2 169.3 53C170 48.7 170.2 44.1 169 41.3C167.5 37.8 165.4 35.9 162.3 34.2C157.3 31.5 150.2 27.4 144.8 22.5C142.9 21 141.3 19.5 140.5 17.8Z" fill="url(#paint1_linear)"/>
<path d="M152.6 10.2001C149.2 12.3001 144.3 14.1001 140.6 17.8001C139 19.2001 138 21.3001 138 23.1001C138 24.5001 138.2 25.9001 139.5 28.1001C139.5 26.4001 141.2 23.8001 144.5 21.9001C148 19.8001 154 16.9001 157.7 12.7001C160 10.1001 158.6 6.9001 155.8 6.1001C156.4 7.9001 153.8 9.4001 152.6 10.2001Z" fill="url(#paint2_linear)"/>
<path d="M149.2 2.9C147.5 3.7 145.4 4.7 143.5 6.1C143.3 6.2 143.2 6.4 143 6.5C142 7.3 141.3 8.5 141 9.9C140.8 11.2 141 12.8 141.9 14.2C142 14.3 142.1 14.5 142.2 14.6C142.3 12.5 143.9 11 146.5 9.7C149.1 8.3 151.5 6.6 153 5.1C154.8 3.2 153.3 0.3 151.6 0C152 1.5 150.4 2.4 149.2 2.9Z" fill="url(#paint3_linear)"/>
<path d="M136.7 33C133.5 37.5 133.7 41.2 135.8 44.5C139.4 50 148.4 54.2 155.6 57.8C159.1 59.6 162.3 61.5 164.9 64.5C166.6 66.5 168.1 68.9 169.1 72H169.2C170 67.6 169.9 62 168.8 58.9C167.8 55.9 165.6 52.8 161.2 50C155.5 46.4 146.7 43.1 141.5 38.2C139.5 36.1 137.5 34.6 136.7 33C136.8 33 136.8 33 136.7 33Z" fill="url(#paint4_linear)"/>
<path d="M157.7 18.3001C152.3 22.3001 141.7 27.3001 136.8 32.9001C136.8 32.9001 136.8 33.0001 136.7 33.0001C133.5 37.5001 133.7 41.2001 135.8 44.5001C135.8 42.8001 138.3 40.4001 141.6 37.8001C147.4 33.1001 157.7 28.9001 163.5 21.4001C165.6 18.7001 164.2 14.3001 161.1 13.1001C161.8 14.8001 159.9 16.6001 157.7 18.3001Z" fill="url(#paint5_linear)"/>
<path d="M23.0004 18V24.3004H9.69269V28.1632H20.2907V34.4636H9.69269V45H0V18.0011H23.0004V18Z" fill="#0767B0"/>
<path d="M55.8586 18V24.3004H42.426V28.1632H53.7929V34.4636H42.426V38.7007H56.3954V45H33.395V18.0011H55.8586V18Z" fill="#0767B0"/>
<path d="M89.7518 18V24.3004H76.4449V28.1632H87.0411V34.4636H76.4449V45H66.7515V18.0011H89.7518V18Z" fill="#0767B0"/>
<path d="M107.019 18V33.7465C107.019 36.3405 107.482 38.5696 110.703 38.5696C113.523 38.5696 114.352 36.5964 114.352 33.7465V18H122.185V32.8699C122.185 41.3106 118.633 45 110.702 45C103.301 45 99.1846 41.8942 99.1846 32.834V18H107.019V18Z" fill="#0767B0"/>
<path d="M95.0039 47V55H92.7314V50.3803H91V48.8028C91.6493 48.8028 92.0822 48.6902 92.515 48.4648C92.9479 48.1268 93.1643 47.6761 93.2725 47H95.0039Z" fill="#0767B0"/>
<path d="M99.4949 50.9404C99.1747 50.7181 98.9612 50.607 98.7478 50.3848C98.5344 50.1626 98.5344 49.8293 98.5344 49.3848C98.5344 48.7182 98.8546 48.1626 99.4949 47.7182C100.028 47.3848 100.775 47.1626 101.629 47.1626C102.483 47.1626 103.123 47.3848 103.657 47.7182C104.19 48.0515 104.51 48.607 104.51 49.2737C104.51 49.7181 104.404 50.0515 104.297 50.2737C104.19 50.4959 103.87 50.7181 103.55 50.9404C103.977 51.0515 104.297 51.3848 104.51 51.607C104.724 51.8293 104.83 52.2737 104.83 52.7181C104.83 53.4959 104.51 54.0515 103.977 54.4959C103.336 54.9404 102.589 55.1626 101.629 55.1626C100.669 55.1626 99.9216 54.9404 99.388 54.607C98.7478 54.1626 98.4277 53.4959 98.4277 52.7181C98.4277 52.2737 98.5332 51.8217 98.6707 51.607C98.8081 51.3923 99.068 51.0515 99.4949 50.9404ZM101.736 53.4959C102.269 53.3848 102.483 53.1626 102.483 52.607C102.483 52.2737 102.376 52.0515 102.163 51.8293C101.949 51.607 101.736 51.607 101.416 51.607C101.095 51.607 100.882 51.7182 100.669 51.8293C100.455 51.9404 100.348 52.2737 100.348 52.607C100.348 52.9404 100.455 53.2494 100.669 53.3605C100.882 53.4716 101.095 53.4959 101.416 53.4959C101.629 53.4959 101.736 53.4959 101.736 53.4959ZM101.522 50.2737C101.842 50.2737 102.056 50.1626 102.163 50.0515C102.376 49.9404 102.376 49.7181 102.376 49.3848C102.376 49.1626 102.269 48.9404 102.163 48.7181C101.949 48.607 101.736 48.4959 101.522 48.4959C101.202 48.4959 100.989 48.607 100.882 48.7181C100.775 48.8293 100.669 49.0515 100.669 49.3848C100.669 49.607 100.775 49.8293 100.882 49.9404C100.989 50.0515 101.202 50.2737 101.522 50.2737Z" fill="#0767B0"/>
<path d="M107.2 52.9178L109.2 52.8082C109.305 53.2466 109.621 53.4657 110.042 53.4657C110.463 53.4657 110.673 53.3561 110.884 53.0274C111.094 52.6986 111.199 52.2603 111.199 51.7123C110.884 51.9315 110.673 52.0411 110.358 52.1507C110.147 52.2603 109.831 52.2603 109.41 52.2603C108.674 52.2603 108.042 51.9315 107.516 51.3836C107.095 50.9452 106.884 50.3973 106.884 49.7397C106.884 48.863 107.2 48.0959 107.726 47.6575C108.253 47.2192 108.989 47 109.831 47C110.989 47 111.831 47.3288 112.357 47.9863C112.989 48.6438 113.304 49.6301 113.304 51.0548C113.304 52.2603 112.989 53.2466 112.463 53.9041C111.936 54.6712 111.094 55 110.042 55C109.305 55 108.673 54.8904 108.147 54.5616C107.726 54.2329 107.411 53.6849 107.2 52.9178ZM110.147 50.726C110.463 50.726 110.779 50.6164 110.884 50.3973C111.094 50.1781 111.094 49.9589 111.094 49.6301C111.094 49.3014 110.989 49.0822 110.778 48.9726C110.568 48.863 110.358 48.6438 110.042 48.6438C109.726 48.6438 109.516 48.7534 109.305 48.9726C109.095 49.1918 109.094 49.411 109.094 49.7397C109.094 50.0685 109.2 50.2877 109.305 50.5069C109.621 50.6164 109.831 50.726 110.147 50.726Z" fill="#0767B0"/>
<path d="M116.124 52.9178L118.124 52.8082C118.229 53.2466 118.545 53.4657 118.966 53.4657C119.387 53.4657 119.598 53.3561 119.808 53.0274C120.019 52.6986 120.124 52.2603 120.124 51.7123C119.808 51.9315 119.598 52.0411 119.282 52.1507C119.071 52.2603 118.756 52.2603 118.335 52.2603C117.598 52.2603 116.966 51.9315 116.44 51.3836C116.019 50.9452 115.809 50.3973 115.809 49.7397C115.809 48.863 116.124 48.0959 116.651 47.6575C117.177 47.2192 117.914 47 118.756 47C119.913 47 120.755 47.3288 121.282 47.9863C121.913 48.6438 122.229 49.6301 122.229 51.0548C122.229 52.2603 121.913 53.2466 121.387 53.9041C120.861 54.6712 120.019 55 118.966 55C118.229 55 117.598 54.8904 117.072 54.5616C116.651 54.2329 116.23 53.6849 116.124 52.9178ZM119.071 50.726C119.387 50.726 119.703 50.6164 119.808 50.3973C120.019 50.1781 120.019 49.9589 120.019 49.6301C120.019 49.3014 119.913 49.0822 119.703 48.9726C119.492 48.863 119.282 48.6438 118.966 48.6438C118.65 48.6438 118.44 48.7534 118.229 48.9726C118.019 49.1918 118.019 49.411 118.019 49.7397C118.019 50.0685 118.124 50.2877 118.229 50.5069C118.545 50.6164 118.756 50.726 119.071 50.726Z" fill="#0767B0"/>
<defs>
<linearGradient id="paint0_linear" x1="170.488" y1="21.5646" x2="139.567" y2="20.2394" gradientUnits="userSpaceOnUse">
<stop stop-color="#0668B3"/>
<stop offset="0.12" stop-color="#188CCC"/>
<stop offset="0.2909" stop-color="#0668B3"/>
<stop offset="0.62" stop-color="#0859A5"/>
<stop offset="0.8412" stop-color="#214397"/>
<stop offset="1" stop-color="#2E3790"/>
</linearGradient>
<linearGradient id="paint1_linear" x1="170.565" y1="36.3521" x2="137.067" y2="34.4379" gradientUnits="userSpaceOnUse">
<stop stop-color="#0668B3"/>
<stop offset="0.12" stop-color="#188CCC"/>
<stop offset="0.2909" stop-color="#0668B3"/>
<stop offset="0.62" stop-color="#0859A5"/>
<stop offset="0.8412" stop-color="#214397"/>
<stop offset="1" stop-color="#2E3790"/>
</linearGradient>
<linearGradient id="paint2_linear" x1="158.752" y1="28.992" x2="137.844" y2="5.8011" gradientUnits="userSpaceOnUse">
<stop stop-color="#71D0F6"/>
<stop offset="0.2992" stop-color="#40B5E7"/>
<stop offset="0.4" stop-color="#2FABE1"/>
<stop offset="0.4466" stop-color="#2FA1DA"/>
<stop offset="0.8254" stop-color="#2E55A5"/>
<stop offset="1" stop-color="#2E3790"/>
</linearGradient>
<linearGradient id="paint3_linear" x1="152.582" y1="14.732" x2="143.674" y2="2.069" gradientUnits="userSpaceOnUse">
<stop stop-color="#71D0F6"/>
<stop offset="0.2992" stop-color="#40B5E7"/>
<stop offset="0.4" stop-color="#2FABE1"/>
<stop offset="0.4466" stop-color="#2FA1DA"/>
<stop offset="0.8254" stop-color="#2E55A5"/>
<stop offset="1" stop-color="#2E3790"/>
</linearGradient>
<linearGradient id="paint4_linear" x1="170.361" y1="53.2661" x2="132.077" y2="51.4992" gradientUnits="userSpaceOnUse">
<stop stop-color="#0668B3"/>
<stop offset="0.12" stop-color="#188CCC"/>
<stop offset="0.2909" stop-color="#0668B3"/>
<stop offset="0.62" stop-color="#0859A5"/>
<stop offset="0.8412" stop-color="#214397"/>
<stop offset="1" stop-color="#2E3790"/>
</linearGradient>
<linearGradient id="paint5_linear" x1="163.491" y1="45.9542" x2="134.705" y2="12.2353" gradientUnits="userSpaceOnUse">
<stop stop-color="#71D0F6"/>
<stop offset="0.2992" stop-color="#40B5E7"/>
<stop offset="0.4" stop-color="#2FABE1"/>
<stop offset="0.4466" stop-color="#2FA1DA"/>
<stop offset="0.8254" stop-color="#2E55A5"/>
<stop offset="1" stop-color="#2E3790"/>
</linearGradient>
</defs>
</svg>
